# xmcd CD database file
#
# Track frame offsets:
#	150
#	15975
#	35615
#	62975
#	100050
#
# Disc length: 1656 seconds
#
# Revision: 3
# Processed by: cddbd v1.4PL0 Copyright (c) Steve Scherf et al.
# Submitted via: CDex 1.50
#
DISCID=36067605
DTITLE=Technotronic - Move It To The Rhythm (Single)
DYEAR=1995
DGENRE=Dance
TTITLE0=Move It To The Rhythm (Album Version)
TTITLE1=Move It To The Rhythm (MCT Edit)
TTITLE2=Move It To The Rhythm (Club Mix)
TTITLE3=Move It To The Rhythm (MCT 12" Mix)
TTITLE4=Move It To The Rhythm (Massive Remix)
EXTD=YEAR: 1995
EXTT0=
EXTT1=
EXTT2=
EXTT3=
EXTT4=
PLAYORDER=
